<?xml version="1.0" encoding="UTF-8" standalone="no"?>
<svg id="svg4207" xmlns:rdf="http://www.w3.org/1999/02/22-rdf-syntax-ns#" xmlns="http://www.w3.org/2000/svg" height="880" viewBox="0 0 762 880" width="762" version="1.1" xmlns:cc="http://creativecommons.org/ns#" xmlns:dc="http://purl.org/dc/elements/1.1/">
<path id="path4217" d="m282 879.01c-14.365-0.88991-23.319-2.3771-30.313-5.0349-7.7003-2.9259-8.8187-4.3313-13.507-16.973-2.6471-7.1378-2.1085-22.864 1.2672-37 1.5104-6.325 2.6892-12.954 2.6195-14.731-1.2766-32.562 18.905-67.239 50.514-86.793l9.2053-5.6947-6.7779-16.641c-3.73-9.15-10.71-25.86-15.52-37.14-9.9728-23.386-17.987-43.754-21.936-55.75-1.4937-4.5375-3.0164-8.2447-3.3838-8.2381-0.36733 0.007-3.0807 0.65407-6.0297 1.439-2.949 0.78492-13.749 3.0399-24 5.011-63.189 12.151-73.151 14.631-88.819 22.116-14.157 6.7631-14.799 11.514-4.3192 31.922 10.646 20.731 8.7607 24.5-12.259 24.5-17.163 0-22.755 2.6372-25.346 11.954-3.392 12.195-4.7924 15.481-8.2103 19.264-16.449 18.21-62.295 15.71-77.266-4.21-21.479-28.59-1.0439-86.8 48.92-139.37 16.76-17.63 85.106-45.5 149.05-60.78l17.778-4.2477-10.265-4.1836c-73.54-29.97-125.2-96.63-146.79-189.43-17.01-73.07 1.541-170.7 39.78-209.4 42.5-43.001 126.29-83.871 192.62-93.952 31.31-4.7586 35.98-5.1491 61-5.097 77.02 0.16042 140.08 40.918 185.46 119.88 43.828 76.253 48.203 196.33 9.9966 274.32-7.5124 15.336-8.9014 14.452 9.8525 6.2671 75.608-32.999 91.438-70.375 55.953-132.11-13.761-23.94-10.687-36.892 8.4424-35.578 9.7993 0.6731 12.39-1.265 14.135-10.573 0.54235-2.893 1.6624-8.86 2.4891-13.26 4.6147-24.563 13.166-31.475 38.96-31.494 36.321-0.027 59.456 10.09 69.092 30.214 24.038 50.199-13.334 200.65-63.724 256.54-10.684 11.85-100.93 63.709-123.91 71.204-3.7125 1.2108-6.75 2.5031-6.75 2.8719 0 0.36876 2.1854 5.8446 4.8566 12.168 8.494 20.11 16.349 46.09 17.781 58.81 0.97407 8.6528 2.5307 10.894 9.6648 13.915 66.279 28.066 108.43 71.651 122.59 126.77 1.8807 7.3185 2.5904 8.5648 8.3313 14.63 45.758 48.341-8.5071 106.18-70.584 75.235-15.96-7.96-24.46-16.01-27.83-26.37-1.421-4.3626-1.6008-4.508-5.888-4.7632-22.508-1.3398-38.548-9.0858-48.176-23.264-12.71-18.71-32.88-26.47-68.75-26.43-47.28 0.04-73.57 23.74-64.85 58.46 10.847 43.206 1.7058 54.619-45.648 56.991-12.1 0.60605-22.9 1.291-24 1.522-9.1223 1.9161-67.395 3.6167-85.5 2.4951zm13-9.0077c28.493-2.1 77.109-8.5416 113.9-15.091 20.175-3.592 20.275-3.6586 15.984-10.603l-2.1198-3.4298-2.1302 1.966c-2.7233 2.5133-8.7269 4.145-15.277 4.1521-14.955 0.0162-119.18 13.2-134.35 16.996-11.037 2.76-12.216 3.194-11.264 4.146 2.6135 2.6135 15.705 3.3055 35.264 1.864zm72.052-0.97053c11.796-1.0837 27.972-2.4463 35.945-3.028 19.57-1.43 27-3.81 27-8.67 0-1.7409 0.3829-1.7777-16.699 1.6062-14.254 2.8236-44.403 7.5767-66.301 10.452-16.191 2.1263-4.7513 1.9239 20.052-0.35467zm-111.5-3.97c4.8282-4.7687 46.662-11.759 119.95-20.045 41.675-4.7113 42.199-4.7911 42.863-6.5215 3.9534-10.302-49.392-8.2578-145.23 5.5663-11.2 1.62-20.79 2.94-21.3 2.94-1.45 0-3.83 6.54-3.83 10.51 0 5.0842 4.9918 10.075 7.55 7.5484zm9.0342-39.777c46.475-24.419 133.23-19.846 161.16 8.4955l6.2606 6.3537-0.0174-4.817c-0.18615-51.651-73.677-85.336-138.98-63.703-30.674 10.161-44.638 28.632-48.581 64.26l-0.70549 6.3748 6.4241-6.3748c4.1095-4.0779 9.3146-7.8935 14.447-10.59zm21.42 11.75c46.38-7.28 81.22-11.03 102.47-11.03 11.49 0 11.581-0.29425 0.94574-3.0394-44.26-11.42-114.68-2.61-132.42 16.57l-2.5 2.7036 3-0.60314c1.65-0.33173 14.475-2.4037 28.5-4.6043zm421.3 0.18145c7.4155-2.673 13.678-7.2057 20.046-14.509l5.0585-5.8016-0.0778-10.698c-0.0895-12.304-1.9141-18.727-7.8696-27.699-5.1344-7.7353-5.1572-7.716-5.6389 4.7689-1.1462 29.711-17.946 36.471-72.98 29.367-14.88-1.93-13.84-1.87-13.84-0.75 0 16.5 51.614 33.853 75.299 25.316zm-9.32-31.29c10.648-3.2701 14.78-11.982 13.68-28.843-0.958-14.685-1.0852-14.909-5.7388-10.114-14.969 15.425-43.386 15.932-57.33 1.0244l-4.66-4.9819-6.2136 3.1176c-9.0689 4.5502-21.845 13.061-32.634 21.739l-9.4601 7.6088 9.144 2.1769c29.501 7.023 82.086 11.69 93.213 8.2727zm-270.95-27.78c-2.1494-26.728-8.0595-43.1-19.901-55.131-42.309-42.986-142.99-2.3898-154.7 62.377l-0.70277 3.887 5.9525-5.9525c38.515-38.515 128.62-33.281 165.45 9.6114 5.4594 6.3586 5.5761 5.9172 3.9108-14.791zm169.83 10.046c12.465-10.645 24.866-19.005 38.002-25.62 5.846-2.944 7.1639-4.017 6.599-5.373-11.486-27.573 2.9595-59.229 29.532-64.716l5.4977-1.1353-6.4977-6.7715c-18.49-19.28-49.04-40.57-58.19-40.57-19.666 0-51.723 27.064-64.285 54.273-8.0132 17.356-14.901 55.736-10.262 57.179 0.6875 0.21378 4.4 1.3615 8.25 2.5504 17.19 5.3087 26.082 11.579 29.53 20.826 5.1308 13.76 12.821 17.056 21.835 9.3597zm-156.38-14.58c13.679-17.233 50.882-26.501 83.462-20.791 7.8074 1.3683 6.8445 2.5484 8.0762-9.898 4.1297-41.733 18.535-68.494 48.904-90.85 10.259-7.5521 12.892-8.9739 20.569-11.108l5.991-1.6651-3.1639-1.6361c-1.7401-0.89986-7.3505-3.4785-12.468-5.7303l-9.3037-4.0942-5.5013 6.33c-32.877 37.829-53.594 51.209-118.63 76.618-12.699 4.9609-26.475 10.43-30.615 12.153l-7.5267 3.1334 3.2836 6.2129c5.6944 10.774 9.0456 23.595 10.999 42.077 0.34086 3.2251 0.94098 5.4751 1.3336 5 0.39261-0.4751 2.4596-3.0631 4.5934-5.7512zm247.53-1.207c10.592-3.1454 19.749-12.002 18.513-17.906-0.34527-1.65-0.76081-5.25-0.92343-8-0.64648-10.932-13.165-36.218-22.774-46-12.826-13.058-39.096 8.6694-40.571 33.555-1.7476 29.496 18.479 46.45 45.754 38.35zm-241.51-65.05c62.832-24.766 80.278-34.154 102.8-55.319l6.0727-5.7079-10.578-23.412c-18.1-40.05-33.31-76.63-41.33-99.4-8.27-23.48-25.52-22.84-107.46 3.95-18.816 6.1518-25.938 7.9486-43.5 10.975-43.057 7.419-48.293 8.988-50.337 15.084-3.3324 9.9356 3.1145 44.035 14.38 76.06 10.946 31.117 15.289 45.09 17.81 57.3 3.0366 14.707 2.1294 13.508 9.2325 12.195 23.671-4.3758 51.973 2.3593 66.616 15.853l5.2987 4.8828 3.5-1.4964c1.925-0.82303 14.3-5.7533 27.5-10.956zm-9.9605-29.55c-2.0415-5.116-9.1234-22.1-15.737-37.743-6.614-15.642-12.634-30.164-13.377-32.271-0.74326-2.1066-1.9861-5.2833-2.762-7.0592-20.054-45.906-19.524-46.611 46.837-62.342 3.3-0.7823 10.85-2.8264 16.779-4.5425 5.9283-1.7161 10.947-2.9456 11.153-2.7322 0.46685 0.48402 18.238 46.654 28.208 73.285 4.298 11.481 10.678 26.043 15.082 34.427l7.6331 14.531-3.7908 3.2769c-7.666 6.6267-58.229 24.762-83.188 29.837l-3.1243 0.63525-3.7119-9.3018zm15.239 4.3642c3.1468-1.5586 8.534-3.8635 11.971-5.1219 3.4375-1.2584 6.25-2.3891 6.25-2.5126 0-0.12351-3.7356-8.0561-8.3013-17.628s-8.9532-18.858-9.75-20.636l-1.4487-3.233-11.25 5.1081c-13.15 5.9709-12.636 4.2392-5.9103 19.914 2.9368 6.8442 6.6079 15.706 8.158 19.694 3.2378 8.329 2.7788 8.1319 10.281 4.4161zm35.901-13.684 11.179-3.8542-1.3146-2.5638c-0.73-1.42-5.24-11.12-10.04-21.57-4.7938-10.45-8.8172-19.109-8.9407-19.243-0.12356-0.13345-5.2217 1.9144-11.329 4.5508l-11.105 4.7934 9.0782 21.25c5.1174 11.978 9.5592 21.083 10.181 20.867 0.60628-0.21022 6.1331-2.1166 12.282-4.2365zm23.304-8.475c15.519-6.3995 15.654-6.6264 9.5376-16.081-5.964-9.2194-7.8005-12.942-12.131-24.591-2.0108-5.4093-3.749-9.9503-3.8626-10.091-0.11359-0.14088-4.9869 1.9987-10.83 4.7547l-10.623 5.0108 1.8312 4.2453c7.19 16.67 17.93 39.75 18.5 39.75 0.18 0 3.5935-1.3469 7.5856-2.9931zm-73.201-26.192c6.2051-2.8628 11.083-5.6797 10.839-6.2598-0.24348-0.58012-3.8984-9.6982-8.1221-20.262l-7.6794-19.208-6.66 2.536c-3.663 1.3948-9.0225 3.433-11.91 4.5294-6.5008 2.4683-6.5673 1.4266 1.3078 20.482 3.6068 8.7273 7.2557 17.555 8.1086 19.618 1.915 4.6308 0.6992 4.7544 14.116-1.4354zm28.347-12.415 10.709-4.6002-3.4982-8.1498c-1.924-4.4824-5.5742-13.1-8.1116-19.15s-4.7523-11.188-4.9221-11.418c-0.37865-0.51247-20.449 6.9093-21.714 8.0298-0.52369 0.46365 1.7528 7.0638 5.3794 15.596 3.458 8.1356 7.1845 16.93 8.281 19.542 2.4022 5.7232 0.93892 5.7074 13.877 0.1498zm33.065-14.988 3.6944-1.9117-6.8868-17.859c-3.7878-9.8225-7.1094-18.082-7.3814-18.354-0.67503-0.67502-22.459 6.6429-23.163 7.7809-0.30916 0.50022 3.1142 9.4291 7.6075 19.842l8.1696 18.932 7.1326-3.2595c3.9229-1.7928 8.7951-4.1198 10.827-5.1712zm-79.484-18.03 11.211-4.6334-1.5065-3.6244c-4.14-9.95-12.77-28.13-13.36-28.13-7.77 0-19.06 8.12-19.06 13.7 0 4.001 8.9556 27.289 10.5 27.304 0.55 0.005 6.0449-2.0754 12.211-4.6237zm28.28-11.16c5.225-1.9664 9.6681-3.7015 9.8736-3.8557 1.02-0.75-11.29-28.36-12.64-28.36-2.8372 0-24.275 5.3718-24.005 6.0149 6.4597 15.366 14.513 30.876 15.772 30.377 0.825-0.32703 5.775-2.2035 11-4.1699zm28-10.174c6.9438-2.5354 10.408-4.2935 10.227-5.191-0.76565-3.8093-9.1775-25.355-9.8947-25.344-3.1981 0.0497-25.319 7.0718-24.979 7.9293 6.8642 17.298 11.259 26.549 12.589 26.499 0.85684-0.0325 6.2829-1.7843 12.058-3.8929zm-132.17 91.24c-9.3947-5.8282-4.539-28.818 7.506-35.538 6.3103-3.5205 17.222-0.0607 20.413 6.4726 1.9968 4.0876 5.2548 13.809 5.2548 15.68 0 8.5919-24.782 18.591-33.174 13.385zm17.942-9.2549c8.909-4.2147 9.0412-7.1358 0.75682-16.719-5.0947-5.8937-13.109-1.5876-16.446 8.8358-3.2594 10.183 3.5724 13.616 15.689 7.8836zm-30.855-36.989c-10.731-3.2521-14.029-16.375-7.6286-30.356 6.8868-15.043 19.048-20.366 29.988-13.127 2.1957 1.4531 5.8395 3.1768 8.0972 3.8304 13.328 3.8589 11.015 28.285-3.3698 35.577-7.8663 3.9879-20.903 5.9493-27.086 4.0753zm18.289-9.025c13.608-4.203 20.418-25.772 7.3487-23.274-2.0053 0.38335-3.0767-0.051-4.2471-1.722-7.51-10.71-25.31 0.74-25.31 16.28 0 9.7489 8.306 13.01 22.202 8.7183zm-280.83 109.97c9.4338-3.5745 13.153-7.6616 16.249-17.857 5.9084-19.456 7.4426-20.624 29.481-22.453 19.279-1.5999 19.266-1.5738 8.3963-16.984-3.029-4.294-6.0042-9.7811-6.6117-12.194-0.8943-3.5516-1.6079-4.4859-3.75-4.9099-12.08-2.39-30.311-4.14-53.14-5.09-13.312-0.55436-31.035-2.0631-36.093-3.0726-9.3331-1.8627-18.926 45.599-12.878 63.717 6.0911 18.247 35.154 27.632 58.352 18.843zm248.37-6.62c3.9875-1.4513 7.25-3.0802 7.25-3.6197s-2.6545-9.8167-5.899-20.616c-3.24-10.79-8.91-30.43-12.59-43.63-13.02-46.65-26.39-91.87-27.86-94.26-0.93205-1.5081 0.76139-2.7347 8.854-6.413 13.677-6.2166 39.822-13.147 103.47-27.426 46.474-10.426 87.513-21.515 103.16-27.874 8.2462-3.3507 10.662-3.3027 11.406 0.22687 3.0568 14.511 13.533 41.251 32.42 82.75 13.46 29.576 21.531 48.19 26.619 61.396l2.8499 7.3964 4.28-4.8639c10.88-12.364 3.0393-42.405-29.473-112.93-13.431-29.134-20.835-47.147-24.252-59-2.9951-10.39-2.6298-10.196-9.6044-5.1206-21.61 15.725-49.943 29.576-75.861 37.087-8.5333 2.4728-15.374 3.8052-36.1 7.0316-9.3008 1.4478-17.103 3.1278-52.92 11.395-19.513 4.504-32.843 6.1546-49.79 6.1657-13.362 0.009-19.659-0.56936-40.984-3.7628l-3.7746-0.56525 0.53729 5.385c0.29551 2.9617 0.98594 9.885 1.5343 15.385 3.5595 35.702 11.877 66.557 28.972 107.48 23.681 56.688 27.833 66.722 28.456 68.77 0.84968 2.7915 0.55574 2.8035 9.3001-0.37913zm9.7481-20.007c-2.46-11.16-12.57-43.08-14.68-46.36-0.86063-1.3333-0.92194-1.3333-0.55181 0 0.22903 0.825 4.2005 15.147 8.8255 31.827 8.3959 30.28 11.344 36.969 6.4072 14.537zm230.12-64.6c-3.597-9.063-13.364-31.505-21.704-49.87-15.175-33.418-26.067-59.343-29.469-70.142-2.0809-6.6053-2.7758-7.0262-4.1275-2.5-0.87099 2.9165-0.64239 3.6206 2.2278 6.8617 1.8084 2.0422 4.1819 6.6052 5.4616 10.5 3.2792 9.9804 12.528 32.923 22.529 55.888 4.7906 11 13.19 30.338 18.665 42.973 11.44 26.4 10.73 24.994 11.99 23.734 0.62227-0.62227-1.3635-6.8378-5.5733-17.445zm-440.25 9.9178c0.72511-2.8891 6.5563-8.9746 11.728-12.239 5.266-3.3243 3.0459-6.5472-29.778-43.229l-15.47-17.288-5.0829 2.9346c-10.622 6.13-21.141 16.27-34.914 33.64-8.336 10.52-20.492 29.19-19.589 30.1 0.88654 0.88654 16.516 2.5141 32.61 3.3958 31.71 1.7372 36.521 2.1049 45.126 3.4492 13.061 2.0405 14.682 1.9601 15.365-0.76237zm38.08-23.143c6.4442-1.9533 20.095-5.1383 30.336-7.0776 10.24-1.9394 18.768-3.6754 18.951-3.8579 0.18246-0.18246-2.8651-8.1551-6.7724-17.717-6.4963-15.898-18.358-45.74-21.313-53.624l-1.2142-3.2385-23.466 7.8987c-25.313 8.5205-60.528 22.681-63.86 25.679-0.21716 0.19538 2.5286 3.4026 6.1016 7.1271 10.613 11.062 20.516 22.58 40.43 47.022 3.3851 4.1547 3.5258 4.2173 6.2771 2.7946 1.5479-0.80044 8.0869-3.0535 14.531-5.0069zm69.093-14.065c6.9847-1.3898 16.013-3.4148 20.062-4.5 4.0496-1.0852 7.655-1.9731 8.0121-1.9731 0.77087 0 0.32936-2.6075-3.1324-18.5-3.112-14.287-6.1161-35.847-7.0868-50.862l-0.70181-10.855-5.0957 0.65682c-9.2901 1.1975-46.506 9.98-55.343 13.06-1.6226 0.56562 2.0476 10.779 16.587 46.156 6.1383 14.936 11.16 27.649 11.16 28.25 0 1.5303 1.1996 1.4196 15.538-1.4334zm71.979-16.555c-0.81435-5.7297-1.4889-14.13-1.499-18.668-0.017-7.644-0.16888-8.25-2.068-8.25-1.1273 0-3.3773-0.68656-5-1.5257-1.62-0.84-2.95-1.32-2.95-1.06 0 0.26196 2.2683 7.586 5.0407 16.276 2.7724 8.6897 5.5301 17.729 6.1284 20.088 1.7829 7.0292 1.9251 4.2238 0.34825-6.8706zm2.555-33.325c5.1769-4.3561 17.241-7.3232 63.349-15.58 8.011-1.4346 21.132-5.2132 40-11.519 47.407-15.845 71.488-20.359 92.525-17.344 2.179 0.31228 2.6368-0.25037 4.1889-5.1494 3.2853-10.369 3.3202-10.34-7.6668-6.4133-5.2424 1.8737-18.405 5.8341-29.25 8.8008-18.39 5.0307-30.245 7.8979-103.72 25.086-47.995 11.228-73.252 18.501-71.892 20.702 0.73511 1.1894 6.2668 3.7286 8.2475 3.7858 0.74561 0.0215 2.6431-1.0442 4.2166-2.3682zm267.48-16.151c19.493-7.755 26.618-11.612 26-14.074-0.3098-1.2343-6.6923-14.984-14.183-30.556-19.731-41.014-22.228-46.332-26.439-56.312-4.9674-11.773-4.787-11.798-18.776 2.6271l-11.893 12.264 1.9649 7.0545c3.6368 13.057 11.923 33.91 22.472 56.555 5.7651 12.375 10.718 23.288 11.007 24.25 0.64107 2.138-0.68436 2.3814 9.8471-1.8084zm38.282-18.141c3.6644-2.0344 12.962-7.5932 20.662-12.353 7.7-4.7596 22.1-13.274 32-18.92 36.32-20.715 37.036-14.596-6.8578-58.624l-36.358-36.469-6.8922 4.5682c-7.5393 4.9971-26.661 14.588-43.892 22.014-6.05 2.6075-11.15 4.8704-11.334 5.0287-0.61801 0.53312 8.9818 21.736 25.787 56.954 9.1855 19.25 17.283 36.462 17.995 38.25 1.5807 3.969 0.86681 4.005 8.8892-0.44895zm-279.84-6.33c6.325-1.1492 20.725-4.2786 32-6.9542 24.913-5.912 33.226-7.5832 47.5-9.5487 85.11-11.72 144.68-65.65 162.88-147.48 6.8244-30.675 6.8511-36.558 0.17733-39.082-5.9343-2.2449-5.6877-2.4182-4.425 3.1096 6.0109 26.314-33.578 114.3-58.612 130.26-2.7621 1.7614-8.397 5.6366-12.522 8.6118-15.538 11.206-47.288 24.949-77.665 33.616-10.359 2.9557-20.747 6.0716-23.084 6.9243-5.6123 2.0477-17.627 4.0959-38.469 6.5579-9.3835 1.1085-21.611 3.1244-27.172 4.4798-24.232 5.9064-37.908 5.9137-69.111 0.037-40.461-7.6204-59.581-15.284-84.502-33.87-21.65-16.15-28-24.18-28-35.41 0-11.764 11.064-51.037 19.116-67.855 7.2962-15.239 2.9344-37.546-9.6911-49.563-11.466-10.913-34.085-55.164-37.431-73.229-3.0505-16.47 0.50367-35.576 11.902-63.978 10.876-27.1 14.332-32.577 29.95-47.461 22.647-21.583 36.444-27.333 53.079-22.119 30.407 9.5307 59.15 10.694 99.353 4.0224 47.942-7.9564 61.637-16.286 70.213-42.706l1.6698-5.1441 7.8846-2.6059c22.99-7.581 54.29 3.79 69.96 25.428 2.475 3.4186 6.5892 8.5255 9.1426 11.349 6.7321 7.4432 10.471 14.967 22.229 44.734 13.493 34.159 15.136 42.349 15.532 77.399 0.2135 18.904 1.3193 28.004 4.3138 35.5 8.1151 20.314 24.665 38.91 37.783 42.453 1.8853 0.50923 1.1476-0.48937-3-4.0612-15.199-13.089-23.631-24.504-26.72-36.171-1.5494-5.8524-1.5324-8.1752 0.35308-48.317 2.46-52.31-36.73-120.59-84.01-146.36-35.96-19.606-59.58-17.506-64.58 5.743-7.28 33.8-105.58 57.917-151.99 37.293-20.383-9.058-32.249-7.0399-50.812 8.642-22.894 19.34-46.726 60.457-53.352 92.048-5.7427 27.377-1.6265 50.58 15.298 86.234 24.173 50.924 25.847 59.674 16.837 88-16.842 52.95-14.441 61.898 24.364 90.813 44.608 33.239 102.84 47.898 153.62 38.671zm374.6-62.341c17.009-28.554 30.825-60.329 39.409-90.643 1.1681-4.125 2.3375-8.2478 2.5986-9.1619 0.35024-1.226-0.38793-1.8474-2.8147-2.3692-5.885-1.2654-33.676-10.479-62.087-20.583-15.289-5.4374-28.339-9.8848-29-9.8831-0.87069 0.002-1.219 3.5214-1.2619 12.75-0.10533 22.659-6.3178 38.04-21.308 52.754-3.3579 3.2961-6.1115 6.4224-6.119 6.9473-0.008 0.52497 14.949 15.828 33.236 34.007 18.288 18.179 34.375 34.517 35.75 36.307l2.5 3.2547 2.1231-2.6188c1.1677-1.4403 4.3059-6.283 6.9738-10.761zm-566.76-48.14c1.1629-4.4 3.6762-12.342 5.5852-17.649 8.9016-24.746 6.7345-41.07-10.04-75.626-13.19-27.16-15.17-31.69-18.29-41.83-15.879-51.66 12.63-127.37 60.65-161.04 6.4001-4.4879 6.55-3.1657-1.5152-13.37-3.7041-4.6865-7.6934-9.8369-8.8649-11.446l-2.1302-2.9247-6.8195 4.4431c-30.81 20.07-49.2 39.018-58.844 60.608-20.86 46.69-27.774 97.02-21.006 152.9l0.6122 5.0551 6.6591-0.0254c34.563-0.13207 59.542 69.809 37.057 103.76l-3.1431 4.7452 3.0798 4.9543c1.6939 2.7249 5.4616 8.1512 8.3727 12.058l5.293 7.1042 0.61411-11.851c0.35992-6.946 1.4892-15.163 2.7284-19.851zm-18.843-10.273c12.073-31.996-17.882-95.647-38.773-82.389-4.6826 2.9718 13.602 57.798 28.217 84.61l4.7771 8.7636 1.8947-2.8563c1.0421-1.571 2.7899-5.229 3.8842-8.129zm630.07-51.48c3.71-13.78 9.93-45.6 9.93-50.82 0-2.7462-0.0621-2.7773-2.75-1.3752-6.063 3.1628-44.631 1.5416-62.21-2.6149-21.965-5.1938-38.03-19.025-41.535-35.759-0.55426-2.6463-1.0315-3.1579-2.3505-2.5194-1.3998 0.67757-5.2276 0.96084-17.45 1.2914-2.6302 0.0711-6.7046 4.5742-6.7046 7.4101 0 2.4119 2.8515 8.3234 14.537 30.138 3.2409 6.05 6.8647 14.355 8.053 18.455l2.1605 7.4552 18.375 6.2097c10.1 3.42 31.65 10.72 47.87 16.23 16.225 5.5098 29.82 10.048 30.211 10.085 0.3913 0.037 1.2269-1.8452 1.8568-4.1827zm-169.71-41.39c1.43-10.41 0.8-21.36-1.23-21.36-34.593 0-47.904-85.239-14.616-93.594 3.1501-0.79063 3.2219-0.1907-1.673-13.984-28.34-79.878-97.38-142.64-166.02-150.95l-5.6846-0.68766-0.56539 3.6071c-1.2325 7.8631-1.49 10.349-1.7002 16.419l-0.21859 6.312 12.427 0.25884c42.732 0.89008 85.781 35.829 114.6 93.006 16.904 33.543 20.461 56.259 15.86 101.29-2.4427 23.906 16.365 50.945 43.696 62.822 4.5371 1.9715 4.4299 2.037 5.1393-3.1381zm-383.68-15.778c4.24-4.92 4.82-9.42 4.82-37.09v-26.009l3.2266-6.5663c3.9034-7.9438 11.036-16.098 26.186-29.935 21.448-19.59 22.559-28.611 4.9267-40.007-19.693-12.728-44.547-4.0661-65.846 22.949-15.131 19.192-16.94 24.911-17.257 54.577l-0.2355 22 6.1534 13.179c12.593 26.973 28.37 38.133 38.029 26.903zm558.37 0.89189c1.62-0.83 2.95-2.16 2.95-2.95 0-0.78355 0.72719-1.8316 1.616-2.329 7.4597-4.1747-0.96177-56.191-10.976-67.794-17.086-19.798-75.194-23.342-84.06-5.1266-23.538 48.357 4.4561 78.998 72.72 79.596 11.506 0.10087 15.456-0.20977 17.75-1.3959zm-174.05-16.82c0-23.28-9.28-76.65-13.32-76.65-13.67 0-20.08 41.62-9.58 62.19 5.6 10.98 22.9 21.9 22.9 14.46zm-292.65-102.02c10.622-4.438 17.445-17.876 11.711-23.065-11.556-10.458-31.497-2.2009-29.638 12.273 1.336 10.401 8.5169 14.724 17.927 10.793zm6.65-60.098c47.46-6.317 74.82-20.01 75-37.532 0.0262-2.5609 4.5852-11.461 7.7171-15.065 2.7843-3.2043 3.026-4.1386 3.6049-13.935 0.3413-5.775 0.91589-12.826 1.2769-15.669l0.65632-5.1693-4.8501-0.72732c-5.58-0.8376-30.14 0.071-41.91 1.5502-4.4 0.55313-9.35 1.0743-11 1.1582-17.895 0.90942-57.33 9.7879-78.5 17.674-30.745 11.452-77.061 34.531-75.331 37.536 8.8439 15.363 17.969 23.099 24.878 21.09 9.5508-2.7765 18.917-1.6702 30.452 3.5969 18.667 8.5238 35.192 9.8584 68 5.4918z"/>
</svg>
